# xmcd CD database file
#
# Track frame offsets:
#	183
#	13090
#	31760
#	44278
#	61205
#	76965
#	96933
#	113503
#	141740
#	156343
#	168900
#	183683
#	202353
#	219163
#	234915
#	248700
#	266773
#	283585
#	295315
#
# Disc length: 4102 seconds
#
# Revision: 1
# Processed by: cddbd v1.5.1PL0 Copyright (c) Steve Scherf et al.
# Submitted via: CDex 1.50beta10
#
DISCID=16100413
DTITLE=Trademark Jazzband - Diga Diga Doo
DYEAR=1993
DGENRE=Jazz
TTITLE0=Dippermouth Blues
TTITLE1=Jelly Roll Blues
TTITLE2=Muskrat Ramble
TTITLE3=Basin Street Blues
TTITLE4=I'm coming Virginia
TTITLE5=The Mooche
TTITLE6=Mabel's Dream
TTITLE7=I can't give you anything but love baby
TTITLE8=Cornet Shop Suey
TTITLE9=Stevedore Stomp
TTITLE10=Jazz me Blues
TTITLE11=Sobbin' Blues
TTITLE12=Dinah
TTITLE13=East Saint Louis Toodle-Oo
TTITLE14=Jada
TTITLE15=Southern Sunsets
TTITLE16=It had to be you
TTITLE17=Le Grand Chene
TTITLE18=Diga Diga Doo
EXTD=YEAR: 1993
EXTT0=
EXTT1=
EXTT2=
EXTT3=
EXTT4=
EXTT5=
EXTT6=
EXTT7=
EXTT8=
EXTT9=
EXTT10=
EXTT11=
EXTT12=
EXTT13=
EXTT14=
EXTT15=
EXTT16=
EXTT17=
EXTT18=
PLAYORDER=
